# xmcd CD database file
#
# Track frame offsets:
#	150
#	22125
#	45125
#	67025
#
# Disc length: 1195 seconds
#
# Revision: 0
# Processed by: cddbd v1.5.1PL2 Copyright (c) Steve Scherf et al.
# Submitted via: CDex 1.51
#
DISCID=2d04a904
DTITLE=京本政樹 - 僕はまだ恋をしてはいけない
DYEAR=2006
DGENRE=Pop
TTITLE0=僕はまだ恋をしてはいけない
TTITLE1=牙狼（ＧＡＲＯ）〜僕が愛を伝えてゆく〜
TTITLE2=僕はまだ恋をしてはいけない（インストルメンタル）
TTITLE3=牙狼（ＧＡＲＯ）〜僕が愛を伝えてゆく〜（インストルメンタル）
EXTD=YEAR: 2006
EXTT0=
EXTT1=
EXTT2=
EXTT3=
PLAYORDER=
